<svg width="128" height="19" viewBox="0 0 128 19" fill="none" xmlns="http://www.w3.org/2000/svg">
<path fill-rule="evenodd" clip-rule="evenodd" d="M1.61104 6.15151C1.61104 2.47398 4.69129 0 9.27526 0C11.8843 0 13.8292 0.610136 15.0545 1.80951C16.0398 2.77905 16.5368 4.12051 16.5239 5.80047V6.00943H11.2588L11.2459 5.81719C11.1517 4.63035 10.4791 4.07872 9.12103 4.07872C7.87008 4.07872 7.18034 4.58438 7.18034 5.49959C7.18034 6.13062 7.53164 6.49001 9.63084 6.92463C13.4737 7.73118 16.0313 8.98071 16.0313 12.4451C16.0313 16.4026 12.9639 18.8724 8.02859 18.8975C5.2011 18.8975 2.97766 18.1829 1.60247 16.8331C0.527166 15.7758 -0.012628 14.3842 0.000224194 12.6959V12.4869H5.42815L5.43672 12.6875C5.47956 13.6612 5.98508 14.8188 8.15711 14.8188C8.99251 14.8355 9.59228 14.6558 9.965 14.3006C10.2435 14.0331 10.3848 13.6612 10.3848 13.1973C10.3848 12.5329 9.99498 12.0899 7.93434 11.672C3.32467 10.7234 1.61104 9.22727 1.61104 6.15151ZM24.8093 6.94134L31.2483 0.250732H37.5544L28.9049 9.06428L34.5427 18.5966H28.3051L24.1067 11.2206L22.9072 18.5966H17.1236L20.1268 0.250732H25.906L24.8093 6.94134ZM49.7897 0.250732L45.8826 5.96763L43.7449 0.250732H37.7172L42.1812 10.715L40.9045 18.5966H46.7138L47.9262 11.0451L55.6332 0.250732H49.7897ZM57.0941 0.250732H62.8776L60.5899 14.1919H67.5987L66.8832 18.5966H54.091L57.0941 0.250732ZM76.7152 0.250732L67.6287 18.5966H73.198L74.7317 15.2618H80.558L80.9993 18.5966H86.9413L83.9124 0.250732H76.7152ZM80.0311 11.3084H76.531L79.2514 5.38674L80.0311 11.3084ZM104.352 2.02681C105.26 2.92112 105.714 4.10379 105.701 5.54972L105.706 5.5539C105.706 8.34131 104.18 10.364 101.507 11.1287L105.046 18.5966H99.1723L96.1349 12.1776H95.2095L94.1728 18.5966H88.4407L91.4438 0.250732H98.6882C101.246 0.250732 103.152 0.848332 104.352 2.02681ZM97.9856 4.53005H96.4862L95.8522 8.42489H97.4715C99.228 8.42489 100.085 7.68938 100.085 6.17658C100.093 5.67927 99.9649 5.29898 99.6993 5.03571C99.3608 4.70138 98.7825 4.53005 97.9856 4.53005ZM126.963 0.250732H120.657L114.218 6.94134L115.319 0.250732H109.536L106.532 18.5966H112.316L113.52 11.2206L117.658 18.488L117.718 18.5966H123.951L118.318 9.06428L126.963 0.250732ZM123.99 16.8831C123.99 15.8008 124.834 14.9859 125.952 14.9859C127.1 14.9859 128 15.8175 128 16.8831C128 17.9487 127.079 18.7803 125.969 18.7803C124.86 18.7803 123.99 17.9654 123.99 16.8831Z" fill="#F4F0ED"/>
</svg>
